<svg width="24" height="24" viewBox="0 0 24 24" fill="none" xmlns="http://www.w3.org/2000/svg">
<path d="M17 0H7C5.14409 0.00198528 3.36477 0.740121 2.05245 2.05245C0.740121 3.36477 0.00198528 5.14409 0 7V17C0.00198528 18.8559 0.740121 20.6352 2.05245 21.9476C3.36477 23.2599 5.14409 23.998 7 24H17C18.8559 23.998 20.6352 23.2599 21.9476 21.9476C23.2599 20.6352 23.998 18.8559 24 17V7C23.998 5.14409 23.2599 3.36477 21.9476 2.05245C20.6352 0.740121 18.8559 0.00198528 17 0ZM16.5 13H13V16.5C13 16.7652 12.8946 17.0196 12.7071 17.2071C12.5196 17.3946 12.2652 17.5 12 17.5C11.7348 17.5 11.4804 17.3946 11.2929 17.2071C11.1054 17.0196 11 16.7652 11 16.5V13H7.5C7.23478 13 6.98043 12.8946 6.79289 12.7071C6.60536 12.5196 6.5 12.2652 6.5 12C6.5 11.7348 6.60536 11.4804 6.79289 11.2929C6.98043 11.1054 7.23478 11 7.5 11H11V7.5C11 7.23478 11.1054 6.98043 11.2929 6.79289C11.4804 6.60536 11.7348 6.5 12 6.5C12.2652 6.5 12.5196 6.60536 12.7071 6.79289C12.8946 6.98043 13 7.23478 13 7.5V11H16.5C16.7652 11 17.0196 11.1054 17.2071 11.2929C17.3946 11.4804 17.5 11.7348 17.5 12C17.5 12.2652 17.3946 12.5196 17.2071 12.7071C17.0196 12.8946 16.7652 13 16.5 13Z" fill="white"/>
</svg>
