<svg version="1.1" id="Layer_1" xmlns="http://www.w3.org/2000/svg" xmlns:xlink="http://www.w3.org/1999/xlink" x="0px" y="0px"
	 viewBox="0 0 24 24" style="enable-background:new 0 0 24 24;" xml:space="preserve">
<style type="text/css">
	.st0{fill:#FFFFFF;}
</style>
<path class="st0" d="M22,2c-1.3-1.3-3.1-2-5-2H7C5.2,0,3.4,0.7,2.1,2S0.1,5.1,0,7v10c0,1.9,0.7,3.6,2.1,4.9C3.4,23.2,5.2,24,7,24h10
	c1.9,0,3.6-0.7,5-2.1s2-3.1,2-4.9V7C24,5.1,23.3,3.4,22,2z M6.9,17.2c-0.1-0.1-0.1-0.3-0.1-0.4l0.3-2.3c0-0.2,0.2-0.5,0.3-0.6
	l4.3-4.3c0.3,0.6,0.7,1.2,1.2,1.7s1.1,0.8,1.8,1l-4.2,4.3c-0.1,0.1-0.4,0.3-0.6,0.3l-2.4,0.4C7.1,17.3,6.9,17.2,6.9,17.2z
	 M13.8,10.1c-0.5-0.5-0.9-1.1-1.1-1.8l0.7-0.8c0.9-0.9,1.7-1.2,2.9-0.1c0.5,0.5,0.8,1,0.8,1.4s-0.2,0.9-0.8,1.4L15.7,11
	C15,10.9,14.4,10.6,13.8,10.1z"/>
</svg>