<svg width="32" height="32" viewBox="0 0 32 32" fill="none" xmlns="http://www.w3.org/2000/svg">
<circle cx="16" cy="16" r="16" fill="#0051AF" fill-opacity="0.15"/>
<g clip-path="url(#clip0_3_3)">
<path d="M15.9145 15.7804C16.7086 15.7804 17.3963 15.4956 17.9581 14.9337C18.52 14.3718 18.8048 13.6843 18.8048 12.8901C18.8048 12.0962 18.52 11.4086 17.958 10.8466C17.3961 10.2848 16.7085 10 15.9145 10C15.1203 10 14.4328 10.2848 13.8709 10.8467C13.3091 11.4085 13.0242 12.0961 13.0242 12.8901C13.0242 13.6843 13.3091 14.3719 13.871 14.9338C14.433 15.4955 15.1205 15.7804 15.9145 15.7804Z" fill="#0051AF"/>
<path d="M20.9718 19.2274C20.9556 18.9935 20.9228 18.7385 20.8745 18.4691C20.8258 18.1978 20.7631 17.9412 20.688 17.7068C20.6105 17.4644 20.505 17.2251 20.3747 16.9958C20.2393 16.7577 20.0804 16.5505 19.9021 16.3799C19.7156 16.2015 19.4872 16.058 19.2232 15.9534C18.9601 15.8493 18.6685 15.7965 18.3566 15.7965C18.2341 15.7965 18.1156 15.8468 17.8868 15.9958C17.746 16.0876 17.5813 16.1938 17.3975 16.3112C17.2403 16.4114 17.0273 16.5052 16.7643 16.5902C16.5077 16.6732 16.2471 16.7154 15.9899 16.7154C15.7328 16.7154 15.4723 16.6732 15.2154 16.5902C14.9526 16.5053 14.7397 16.4115 14.5827 16.3113C14.4006 16.195 14.2358 16.0888 14.0929 15.9957C13.8643 15.8467 13.7458 15.7964 13.6233 15.7964C13.3113 15.7964 13.0198 15.8493 12.7567 15.9535C12.4929 16.0579 12.2645 16.2014 12.0778 16.38C11.8995 16.5507 11.7405 16.7578 11.6054 16.9958C11.4751 17.2251 11.3696 17.4643 11.292 17.7069C11.217 17.9413 11.1543 18.1978 11.1056 18.4691C11.0573 18.7381 11.0246 18.9933 11.0084 19.2276C10.9924 19.4573 10.9844 19.6956 10.9844 19.9363C10.9844 20.5627 11.1835 21.0698 11.5762 21.4438C11.964 21.8128 12.4771 22 13.1012 22H18.8792C19.5033 22 20.0162 21.8129 20.4041 21.4438C20.7969 21.07 20.996 20.5628 20.996 19.9362C20.9959 19.6944 20.9878 19.4559 20.9718 19.2274Z" fill="#0051AF"/>
</g>
<defs>
<clipPath id="clip0_3_3">
<rect width="12" height="12" fill="white" transform="translate(10 10)"/>
</clipPath>
</defs>
</svg>
