<svg width="183" height="28" viewBox="0 0 183 28" fill="none" xmlns="http://www.w3.org/2000/svg">
<path d="M45.9531 4.9375V22H42.7422V4.9375H45.9531ZM51.25 4.9375V7.48047H37.5039V4.9375H51.25ZM58.4805 19.3047V13.457C58.4805 13.0273 58.4062 12.6562 58.2578 12.3438C58.1094 12.0312 57.8828 11.7891 57.5781 11.6172C57.2734 11.4453 56.8867 11.3594 56.418 11.3594C56.0039 11.3594 55.6406 11.4297 55.3281 11.5703C55.0234 11.7109 54.7891 11.9102 54.625 12.168C54.4609 12.418 54.3789 12.707 54.3789 13.0352H51.2734C51.2734 12.5117 51.3984 12.0156 51.6484 11.5469C51.8984 11.0703 52.2539 10.6484 52.7148 10.2812C53.1836 9.90625 53.7422 9.61328 54.3906 9.40234C55.0469 9.19141 55.7812 9.08594 56.5938 9.08594C57.5547 9.08594 58.4102 9.25 59.1602 9.57812C59.918 9.89844 60.5117 10.3828 60.9414 11.0312C61.3789 11.6797 61.5977 12.4961 61.5977 13.4805V19.0117C61.5977 19.6445 61.6367 20.1875 61.7148 20.6406C61.8008 21.0859 61.9258 21.4727 62.0898 21.8008V22H58.9375C58.7891 21.6797 58.6758 21.2734 58.5977 20.7812C58.5195 20.2812 58.4805 19.7891 58.4805 19.3047ZM58.9141 14.2773L58.9375 16.1172H56.9805C56.4961 16.1172 56.0703 16.168 55.7031 16.2695C55.3359 16.3633 55.0352 16.5039 54.8008 16.6914C54.5664 16.8711 54.3906 17.0898 54.2734 17.3477C54.1562 17.5977 54.0977 17.8828 54.0977 18.2031C54.0977 18.5156 54.168 18.7969 54.3086 19.0469C54.457 19.2969 54.668 19.4961 54.9414 19.6445C55.2227 19.7852 55.5508 19.8555 55.9258 19.8555C56.4727 19.8555 56.9492 19.7461 57.3555 19.5273C57.7617 19.3008 58.0781 19.0273 58.3047 18.707C58.5312 18.3867 58.6523 18.082 58.668 17.793L59.5586 19.1289C59.4492 19.4492 59.2852 19.7891 59.0664 20.1484C58.8477 20.5078 58.5664 20.8438 58.2227 21.1562C57.8789 21.4688 57.4648 21.7266 56.9805 21.9297C56.4961 22.1328 55.9336 22.2344 55.293 22.2344C54.4727 22.2344 53.7383 22.0703 53.0898 21.7422C52.4414 21.4141 51.9297 20.9648 51.5547 20.3945C51.1797 19.8242 50.9922 19.1758 50.9922 18.4492C50.9922 17.7773 51.1172 17.1836 51.3672 16.668C51.6172 16.1523 51.9883 15.7188 52.4805 15.3672C52.9727 15.0078 53.582 14.7383 54.3086 14.5586C55.043 14.3711 55.8828 14.2773 56.8281 14.2773H58.9141ZM71.3594 18.5312C71.3594 18.2656 71.2891 18.0273 71.1484 17.8164C71.0078 17.6055 70.7422 17.4141 70.3516 17.2422C69.9688 17.0625 69.4062 16.8945 68.6641 16.7383C68.0078 16.5977 67.4023 16.4219 66.8477 16.2109C66.293 16 65.8164 15.7461 65.418 15.4492C65.0195 15.1445 64.707 14.7891 64.4805 14.3828C64.2617 13.9688 64.1523 13.4922 64.1523 12.9531C64.1523 12.4297 64.2656 11.9375 64.4922 11.4766C64.7188 11.0078 65.0469 10.5977 65.4766 10.2461C65.9062 9.88672 66.4297 9.60547 67.0469 9.40234C67.6641 9.19141 68.3594 9.08594 69.1328 9.08594C70.2109 9.08594 71.1367 9.26172 71.9102 9.61328C72.6914 9.96484 73.2891 10.4492 73.7031 11.0664C74.1172 11.6758 74.3242 12.3633 74.3242 13.1289H71.2305C71.2305 12.793 71.1523 12.4883 70.9961 12.2148C70.8477 11.9414 70.6172 11.7227 70.3047 11.5586C69.9922 11.3867 69.5977 11.3008 69.1211 11.3008C68.6914 11.3008 68.3281 11.3711 68.0312 11.5117C67.7422 11.6523 67.5234 11.8359 67.375 12.0625C67.2266 12.2891 67.1523 12.5391 67.1523 12.8125C67.1523 13.0156 67.1914 13.1992 67.2695 13.3633C67.3555 13.5195 67.4922 13.6641 67.6797 13.7969C67.8672 13.9297 68.1211 14.0508 68.4414 14.1602C68.7695 14.2695 69.1719 14.375 69.6484 14.4766C70.5938 14.6641 71.418 14.9141 72.1211 15.2266C72.832 15.5312 73.3867 15.9375 73.7852 16.4453C74.1836 16.9531 74.3828 17.6016 74.3828 18.3906C74.3828 18.9531 74.2617 19.4688 74.0195 19.9375C73.7773 20.3984 73.4258 20.8008 72.9648 21.1445C72.5039 21.4883 71.9531 21.7578 71.3125 21.9531C70.6719 22.1406 69.9492 22.2344 69.1445 22.2344C67.9805 22.2344 66.9961 22.0273 66.1914 21.6133C65.3867 21.1914 64.7773 20.6602 64.3633 20.0195C63.9492 19.3711 63.7422 18.6992 63.7422 18.0039H66.707C66.7305 18.4961 66.8633 18.8906 67.1055 19.1875C67.3477 19.4844 67.6523 19.6992 68.0195 19.832C68.3945 19.957 68.7891 20.0195 69.2031 20.0195C69.6719 20.0195 70.0664 19.957 70.3867 19.832C70.707 19.6992 70.9492 19.5234 71.1133 19.3047C71.2773 19.0781 71.3594 18.8203 71.3594 18.5312ZM79.832 3.98828V22H76.7383V3.98828H79.832ZM87.7773 9.32031L82.2578 15.5195L79.2695 18.5547L78.2852 16.1523L80.5938 13.2461L84.0391 9.32031H87.7773ZM84.6133 22L80.6875 16.0938L82.75 14.0898L88.1992 22H84.6133Z" fill="#0051AF"/>
<path d="M90.7188 4.9375H92.9102L98.5 18.8477L104.078 4.9375H106.281L99.3438 22H97.6328L90.7188 4.9375ZM90.0039 4.9375H91.9375L92.2539 15.3438V22H90.0039V4.9375ZM105.051 4.9375H106.984V22H104.734V15.3438L105.051 4.9375ZM118.105 19.832V13.3047C118.105 12.8047 118.004 12.3711 117.801 12.0039C117.605 11.6289 117.309 11.3398 116.91 11.1367C116.512 10.9336 116.02 10.832 115.434 10.832C114.887 10.832 114.406 10.9258 113.992 11.1133C113.586 11.3008 113.266 11.5469 113.031 11.8516C112.805 12.1562 112.691 12.4844 112.691 12.8359H110.523C110.523 12.3828 110.641 11.9336 110.875 11.4883C111.109 11.043 111.445 10.6406 111.883 10.2812C112.328 9.91406 112.859 9.625 113.477 9.41406C114.102 9.19531 114.797 9.08594 115.562 9.08594C116.484 9.08594 117.297 9.24219 118 9.55469C118.711 9.86719 119.266 10.3398 119.664 10.9727C120.07 11.5977 120.273 12.3828 120.273 13.3281V19.2344C120.273 19.6562 120.309 20.1055 120.379 20.582C120.457 21.0586 120.57 21.4688 120.719 21.8125V22H118.457C118.348 21.75 118.262 21.418 118.199 21.0039C118.137 20.582 118.105 20.1914 118.105 19.832ZM118.48 14.3125L118.504 15.8359H116.312C115.695 15.8359 115.145 15.8867 114.66 15.9883C114.176 16.082 113.77 16.2266 113.441 16.4219C113.113 16.6172 112.863 16.8633 112.691 17.1602C112.52 17.4492 112.434 17.7891 112.434 18.1797C112.434 18.5781 112.523 18.9414 112.703 19.2695C112.883 19.5977 113.152 19.8594 113.512 20.0547C113.879 20.2422 114.328 20.3359 114.859 20.3359C115.523 20.3359 116.109 20.1953 116.617 19.9141C117.125 19.6328 117.527 19.2891 117.824 18.8828C118.129 18.4766 118.293 18.082 118.316 17.6992L119.242 18.7422C119.188 19.0703 119.039 19.4336 118.797 19.832C118.555 20.2305 118.23 20.6133 117.824 20.9805C117.426 21.3398 116.949 21.6406 116.395 21.8828C115.848 22.1172 115.23 22.2344 114.543 22.2344C113.684 22.2344 112.93 22.0664 112.281 21.7305C111.641 21.3945 111.141 20.9453 110.781 20.3828C110.43 19.8125 110.254 19.1758 110.254 18.4727C110.254 17.793 110.387 17.1953 110.652 16.6797C110.918 16.1562 111.301 15.7227 111.801 15.3789C112.301 15.0273 112.902 14.7617 113.605 14.582C114.309 14.4023 115.094 14.3125 115.961 14.3125H118.48ZM125.852 12.0273V22H123.684V9.32031H125.734L125.852 12.0273ZM125.336 15.1797L124.434 15.1445C124.441 14.2773 124.57 13.4766 124.82 12.7422C125.07 12 125.422 11.3555 125.875 10.8086C126.328 10.2617 126.867 9.83984 127.492 9.54297C128.125 9.23828 128.824 9.08594 129.59 9.08594C130.215 9.08594 130.777 9.17188 131.277 9.34375C131.777 9.50781 132.203 9.77344 132.555 10.1406C132.914 10.5078 133.188 10.9844 133.375 11.5703C133.562 12.1484 133.656 12.8555 133.656 13.6914V22H131.477V13.668C131.477 13.0039 131.379 12.4727 131.184 12.0742C130.988 11.668 130.703 11.375 130.328 11.1953C129.953 11.0078 129.492 10.9141 128.945 10.9141C128.406 10.9141 127.914 11.0273 127.469 11.2539C127.031 11.4805 126.652 11.793 126.332 12.1914C126.02 12.5898 125.773 13.0469 125.594 13.5625C125.422 14.0703 125.336 14.6094 125.336 15.1797ZM144.426 19.832V13.3047C144.426 12.8047 144.324 12.3711 144.121 12.0039C143.926 11.6289 143.629 11.3398 143.23 11.1367C142.832 10.9336 142.34 10.832 141.754 10.832C141.207 10.832 140.727 10.9258 140.312 11.1133C139.906 11.3008 139.586 11.5469 139.352 11.8516C139.125 12.1562 139.012 12.4844 139.012 12.8359H136.844C136.844 12.3828 136.961 11.9336 137.195 11.4883C137.43 11.043 137.766 10.6406 138.203 10.2812C138.648 9.91406 139.18 9.625 139.797 9.41406C140.422 9.19531 141.117 9.08594 141.883 9.08594C142.805 9.08594 143.617 9.24219 144.32 9.55469C145.031 9.86719 145.586 10.3398 145.984 10.9727C146.391 11.5977 146.594 12.3828 146.594 13.3281V19.2344C146.594 19.6562 146.629 20.1055 146.699 20.582C146.777 21.0586 146.891 21.4688 147.039 21.8125V22H144.777C144.668 21.75 144.582 21.418 144.52 21.0039C144.457 20.582 144.426 20.1914 144.426 19.832ZM144.801 14.3125L144.824 15.8359H142.633C142.016 15.8359 141.465 15.8867 140.98 15.9883C140.496 16.082 140.09 16.2266 139.762 16.4219C139.434 16.6172 139.184 16.8633 139.012 17.1602C138.84 17.4492 138.754 17.7891 138.754 18.1797C138.754 18.5781 138.844 18.9414 139.023 19.2695C139.203 19.5977 139.473 19.8594 139.832 20.0547C140.199 20.2422 140.648 20.3359 141.18 20.3359C141.844 20.3359 142.43 20.1953 142.938 19.9141C143.445 19.6328 143.848 19.2891 144.145 18.8828C144.449 18.4766 144.613 18.082 144.637 17.6992L145.562 18.7422C145.508 19.0703 145.359 19.4336 145.117 19.832C144.875 20.2305 144.551 20.6133 144.145 20.9805C143.746 21.3398 143.27 21.6406 142.715 21.8828C142.168 22.1172 141.551 22.2344 140.863 22.2344C140.004 22.2344 139.25 22.0664 138.602 21.7305C137.961 21.3945 137.461 20.9453 137.102 20.3828C136.75 19.8125 136.574 19.1758 136.574 18.4727C136.574 17.793 136.707 17.1953 136.973 16.6797C137.238 16.1562 137.621 15.7227 138.121 15.3789C138.621 15.0273 139.223 14.7617 139.926 14.582C140.629 14.4023 141.414 14.3125 142.281 14.3125H144.801ZM158.219 9.32031H160.188V21.7305C160.188 22.8477 159.961 23.8008 159.508 24.5898C159.055 25.3789 158.422 25.9766 157.609 26.3828C156.805 26.7969 155.875 27.0039 154.82 27.0039C154.383 27.0039 153.867 26.9336 153.273 26.793C152.688 26.6602 152.109 26.4297 151.539 26.1016C150.977 25.7812 150.504 25.3477 150.121 24.8008L151.258 23.5117C151.789 24.1523 152.344 24.5977 152.922 24.8477C153.508 25.0977 154.086 25.2227 154.656 25.2227C155.344 25.2227 155.938 25.0938 156.438 24.8359C156.938 24.5781 157.324 24.1953 157.598 23.6875C157.879 23.1875 158.02 22.5703 158.02 21.8359V12.1094L158.219 9.32031ZM149.488 15.8008V15.5547C149.488 14.5859 149.602 13.707 149.828 12.918C150.062 12.1211 150.395 11.4375 150.824 10.8672C151.262 10.2969 151.789 9.85938 152.406 9.55469C153.023 9.24219 153.719 9.08594 154.492 9.08594C155.289 9.08594 155.984 9.22656 156.578 9.50781C157.18 9.78125 157.688 10.1836 158.102 10.7148C158.523 11.2383 158.855 11.8711 159.098 12.6133C159.34 13.3555 159.508 14.1953 159.602 15.1328V16.2109C159.516 17.1406 159.348 17.9766 159.098 18.7188C158.855 19.4609 158.523 20.0938 158.102 20.6172C157.688 21.1406 157.18 21.543 156.578 21.8242C155.977 22.0977 155.273 22.2344 154.469 22.2344C153.711 22.2344 153.023 22.0742 152.406 21.7539C151.797 21.4336 151.273 20.9844 150.836 20.4062C150.398 19.8281 150.062 19.1484 149.828 18.3672C149.602 17.5781 149.488 16.7227 149.488 15.8008ZM151.656 15.5547V15.8008C151.656 16.4336 151.719 17.0273 151.844 17.582C151.977 18.1367 152.176 18.625 152.441 19.0469C152.715 19.4688 153.062 19.8008 153.484 20.043C153.906 20.2773 154.41 20.3945 154.996 20.3945C155.715 20.3945 156.309 20.2422 156.777 19.9375C157.246 19.6328 157.617 19.2305 157.891 18.7305C158.172 18.2305 158.391 17.6875 158.547 17.1016V14.2773C158.461 13.8477 158.328 13.4336 158.148 13.0352C157.977 12.6289 157.75 12.2695 157.469 11.957C157.195 11.6367 156.855 11.3828 156.449 11.1953C156.043 11.0078 155.566 10.9141 155.02 10.9141C154.426 10.9141 153.914 11.0391 153.484 11.2891C153.062 11.5312 152.715 11.8672 152.441 12.2969C152.176 12.7188 151.977 13.2109 151.844 13.7734C151.719 14.3281 151.656 14.9219 151.656 15.5547ZM168.742 22.2344C167.859 22.2344 167.059 22.0859 166.34 21.7891C165.629 21.4844 165.016 21.0586 164.5 20.5117C163.992 19.9648 163.602 19.3164 163.328 18.5664C163.055 17.8164 162.918 16.9961 162.918 16.1055V15.6133C162.918 14.582 163.07 13.6641 163.375 12.8594C163.68 12.0469 164.094 11.3594 164.617 10.7969C165.141 10.2344 165.734 9.80859 166.398 9.51953C167.062 9.23047 167.75 9.08594 168.461 9.08594C169.367 9.08594 170.148 9.24219 170.805 9.55469C171.469 9.86719 172.012 10.3047 172.434 10.8672C172.855 11.4219 173.168 12.0781 173.371 12.8359C173.574 13.5859 173.676 14.4062 173.676 15.2969V16.2695H164.207V14.5H171.508V14.3359C171.477 13.7734 171.359 13.2266 171.156 12.6953C170.961 12.1641 170.648 11.7266 170.219 11.3828C169.789 11.0391 169.203 10.8672 168.461 10.8672C167.969 10.8672 167.516 10.9727 167.102 11.1836C166.688 11.3867 166.332 11.6914 166.035 12.0977C165.738 12.5039 165.508 13 165.344 13.5859C165.18 14.1719 165.098 14.8477 165.098 15.6133V16.1055C165.098 16.707 165.18 17.2734 165.344 17.8047C165.516 18.3281 165.762 18.7891 166.082 19.1875C166.41 19.5859 166.805 19.8984 167.266 20.125C167.734 20.3516 168.266 20.4648 168.859 20.4648C169.625 20.4648 170.273 20.3086 170.805 19.9961C171.336 19.6836 171.801 19.2656 172.199 18.7422L173.512 19.7852C173.238 20.1992 172.891 20.5938 172.469 20.9688C172.047 21.3438 171.527 21.6484 170.91 21.8828C170.301 22.1172 169.578 22.2344 168.742 22.2344ZM178.375 11.3125V22H176.207V9.32031H178.316L178.375 11.3125ZM182.336 9.25L182.324 11.2656C182.145 11.2266 181.973 11.2031 181.809 11.1953C181.652 11.1797 181.473 11.1719 181.27 11.1719C180.77 11.1719 180.328 11.25 179.945 11.4062C179.562 11.5625 179.238 11.7812 178.973 12.0625C178.707 12.3438 178.496 12.6797 178.34 13.0703C178.191 13.4531 178.094 13.875 178.047 14.3359L177.438 14.6875C177.438 13.9219 177.512 13.2031 177.66 12.5312C177.816 11.8594 178.055 11.2656 178.375 10.75C178.695 10.2266 179.102 9.82031 179.594 9.53125C180.094 9.23438 180.688 9.08594 181.375 9.08594C181.531 9.08594 181.711 9.10547 181.914 9.14453C182.117 9.17578 182.258 9.21094 182.336 9.25Z" fill="#69AEFF"/>
<path d="M8.19995 14.6L11.8 18.2L17.2 8" stroke="#0051AF" stroke-width="2" stroke-linecap="round" stroke-linejoin="round"/>
<path d="M9.4 26H16.6C22.6 26 25 23.6 25 17.6V10.4C25 4.4 22.6 2 16.6 2H9.4C3.4 2 1 4.4 1 10.4V17.6C1 23.6 3.4 26 9.4 26Z" stroke="#0051AF" stroke-width="2" stroke-linecap="round" stroke-linejoin="round"/>
</svg>
