<svg width="24" height="24" viewBox="0 0 24 24" fill="none" xmlns="http://www.w3.org/2000/svg">
<path d="M17 0H7C5.14409 0.00198528 3.36477 0.740121 2.05245 2.05245C0.740121 3.36477 0.00198528 5.14409 0 7V17C0.00198528 18.8559 0.740121 20.6352 2.05245 21.9476C3.36477 23.2599 5.14409 23.998 7 24H17C18.8559 23.998 20.6352 23.2599 21.9476 21.9476C23.2599 20.6352 23.998 18.8559 24 17V7C23.998 5.14409 23.2599 3.36477 21.9476 2.05245C20.6352 0.740121 18.8559 0.00198528 17 0Z" fill="white"/>
<path d="M12.9493 7.04032L6.79017 13.3223C6.5576 13.5609 6.33254 14.0308 6.28753 14.3561L6.00995 16.6983C5.91243 17.5441 6.5426 18.1224 7.41284 17.9778L9.82849 17.5802C10.1661 17.5224 10.6387 17.2838 10.8713 17.0381L17.0305 10.756C18.0957 9.67168 18.5759 8.43552 16.9179 6.92465C15.2675 5.42824 14.0146 5.95596 12.9493 7.04032V7.04032Z" stroke="#0051AF" stroke-width="1.5" stroke-miterlimit="10" stroke-linecap="round" stroke-linejoin="round"/>
<path d="M11.9216 8.08856C12.0789 9.05787 12.5658 9.94941 13.3058 10.6232C14.0458 11.2971 14.997 11.715 16.0102 11.8115" stroke="#0051AF" stroke-width="1.5" stroke-miterlimit="10" stroke-linecap="round" stroke-linejoin="round"/>
</svg>
