<svg width="32" height="32" viewBox="0 0 32 32" fill="none" xmlns="http://www.w3.org/2000/svg">
<circle cx="16" cy="16" r="16" fill="#0051AF" fill-opacity="0.15"/>
<path d="M16.0154 10.5785C13.9521 10.5785 12.2753 12.1829 12.2753 14.1571V15.8807C12.2753 16.2445 12.1133 16.7992 11.92 17.1093L11.2032 18.2485C10.7606 18.9523 11.0661 19.7336 11.8764 19.996C14.563 20.8549 17.4616 20.8549 20.1482 19.996C20.9024 19.7575 21.2328 18.9046 20.8214 18.2485L20.1046 17.1093C19.9176 16.7992 19.7555 16.2445 19.7555 15.8807V14.1571C19.7555 12.1889 18.0725 10.5785 16.0154 10.5785Z" fill="#0051AF"/>
<path d="M17.1687 10.7515C16.4149 10.5461 15.6161 10.5461 14.8623 10.7515C15.0431 10.3101 15.4919 10 16.0155 10C16.5391 10 16.9879 10.3101 17.1687 10.7515Z" fill="#0051AF"/>
<path d="M17.8853 20.2107C17.8853 21.1948 17.0438 22 16.0153 22C15.5042 22 15.0304 21.7972 14.6938 21.4751C14.3436 21.1395 14.1464 20.685 14.1453 20.2107" fill="#0051AF"/>
</svg>
