<svg width="185" height="32" viewBox="0 0 185 32" fill="none" xmlns="http://www.w3.org/2000/svg">
<path opacity="0.5" d="M57.8281 11.625H59.3281V19.3203C59.3281 20.1745 59.138 20.8854 58.7578 21.4531C58.3776 22.0208 57.8724 22.4479 57.2422 22.7344C56.6172 23.0156 55.9375 23.1562 55.2031 23.1562C54.4323 23.1562 53.7344 23.0156 53.1094 22.7344C52.4896 22.4479 51.9974 22.0208 51.6328 21.4531C51.2734 20.8854 51.0938 20.1745 51.0938 19.3203V11.625H52.5859V19.3203C52.5859 19.9141 52.6953 20.4036 52.9141 20.7891C53.1328 21.1745 53.4375 21.4609 53.8281 21.6484C54.224 21.8359 54.6823 21.9297 55.2031 21.9297C55.7292 21.9297 56.1875 21.8359 56.5781 21.6484C56.974 21.4609 57.2812 21.1745 57.5 20.7891C57.7188 20.4036 57.8281 19.9141 57.8281 19.3203V11.625ZM66.3984 20.7578C66.3984 20.5495 66.3516 20.3568 66.2578 20.1797C66.1693 19.9974 65.9844 19.8333 65.7031 19.6875C65.4271 19.5365 65.0104 19.4062 64.4531 19.2969C63.9844 19.1979 63.5599 19.0807 63.1797 18.9453C62.8047 18.8099 62.4844 18.6458 62.2188 18.4531C61.9583 18.2604 61.7578 18.0339 61.6172 17.7734C61.4766 17.513 61.4062 17.2083 61.4062 16.8594C61.4062 16.526 61.4792 16.2109 61.625 15.9141C61.776 15.6172 61.987 15.3542 62.2578 15.125C62.5339 14.8958 62.8646 14.7161 63.25 14.5859C63.6354 14.4557 64.0651 14.3906 64.5391 14.3906C65.2161 14.3906 65.7943 14.5104 66.2734 14.75C66.7526 14.9896 67.1198 15.3099 67.375 15.7109C67.6302 16.1068 67.7578 16.5469 67.7578 17.0312H66.3125C66.3125 16.7969 66.2422 16.5703 66.1016 16.3516C65.9661 16.1276 65.7656 15.9427 65.5 15.7969C65.2396 15.651 64.9193 15.5781 64.5391 15.5781C64.138 15.5781 63.8125 15.6406 63.5625 15.7656C63.3177 15.8854 63.138 16.0391 63.0234 16.2266C62.9141 16.4141 62.8594 16.612 62.8594 16.8203C62.8594 16.9766 62.8854 17.1172 62.9375 17.2422C62.9948 17.362 63.0938 17.474 63.2344 17.5781C63.375 17.6771 63.5729 17.7708 63.8281 17.8594C64.0833 17.9479 64.4089 18.0365 64.8047 18.125C65.4974 18.2812 66.0677 18.4688 66.5156 18.6875C66.9635 18.9062 67.2969 19.1745 67.5156 19.4922C67.7344 19.8099 67.8438 20.1953 67.8438 20.6484C67.8438 21.0182 67.7656 21.3568 67.6094 21.6641C67.4583 21.9714 67.237 22.237 66.9453 22.4609C66.6589 22.6797 66.3151 22.8516 65.9141 22.9766C65.5182 23.0964 65.0729 23.1562 64.5781 23.1562C63.8333 23.1562 63.2031 23.0234 62.6875 22.7578C62.1719 22.4922 61.7812 22.1484 61.5156 21.7266C61.25 21.3047 61.1172 20.8594 61.1172 20.3906H62.5703C62.5911 20.7865 62.7057 21.1016 62.9141 21.3359C63.1224 21.5651 63.3776 21.7292 63.6797 21.8281C63.9818 21.9219 64.2812 21.9688 64.5781 21.9688C64.974 21.9688 65.3047 21.9167 65.5703 21.8125C65.8411 21.7083 66.0469 21.5651 66.1875 21.3828C66.3281 21.2005 66.3984 20.9922 66.3984 20.7578ZM73.25 23.1562C72.6615 23.1562 72.1276 23.0573 71.6484 22.8594C71.1745 22.6562 70.7656 22.3724 70.4219 22.0078C70.0833 21.6432 69.8229 21.2109 69.6406 20.7109C69.4583 20.2109 69.3672 19.6641 69.3672 19.0703V18.7422C69.3672 18.0547 69.4688 17.4427 69.6719 16.9062C69.875 16.3646 70.151 15.9062 70.5 15.5312C70.849 15.1562 71.2448 14.8724 71.6875 14.6797C72.1302 14.487 72.5885 14.3906 73.0625 14.3906C73.6667 14.3906 74.1875 14.4948 74.625 14.7031C75.0677 14.9115 75.4297 15.2031 75.7109 15.5781C75.9922 15.9479 76.2005 16.3854 76.3359 16.8906C76.4714 17.3906 76.5391 17.9375 76.5391 18.5312V19.1797H70.2266V18H75.0938V17.8906C75.0729 17.5156 74.9948 17.151 74.8594 16.7969C74.7292 16.4427 74.5208 16.151 74.2344 15.9219C73.9479 15.6927 73.5573 15.5781 73.0625 15.5781C72.7344 15.5781 72.4323 15.6484 72.1562 15.7891C71.8802 15.9245 71.6432 16.1276 71.4453 16.3984C71.2474 16.6693 71.0938 17 70.9844 17.3906C70.875 17.7812 70.8203 18.2318 70.8203 18.7422V19.0703C70.8203 19.4714 70.875 19.849 70.9844 20.2031C71.099 20.5521 71.263 20.8594 71.4766 21.125C71.6953 21.3906 71.9583 21.599 72.2656 21.75C72.5781 21.901 72.9323 21.9766 73.3281 21.9766C73.8385 21.9766 74.2708 21.8724 74.625 21.6641C74.9792 21.4557 75.2891 21.1771 75.5547 20.8281L76.4297 21.5234C76.2474 21.7995 76.0156 22.0625 75.7344 22.3125C75.4531 22.5625 75.1068 22.7656 74.6953 22.9219C74.2891 23.0781 73.8073 23.1562 73.25 23.1562ZM79.6719 15.875V23H78.2266V14.5469H79.6328L79.6719 15.875ZM82.3125 14.5L82.3047 15.8438C82.1849 15.8177 82.0703 15.8021 81.9609 15.7969C81.8568 15.7865 81.737 15.7812 81.6016 15.7812C81.2682 15.7812 80.974 15.8333 80.7188 15.9375C80.4635 16.0417 80.2474 16.1875 80.0703 16.375C79.8932 16.5625 79.7526 16.7865 79.6484 17.0469C79.5495 17.3021 79.4844 17.5833 79.4531 17.8906L79.0469 18.125C79.0469 17.6146 79.0964 17.1354 79.1953 16.6875C79.2995 16.2396 79.4583 15.8438 79.6719 15.5C79.8854 15.151 80.1562 14.8802 80.4844 14.6875C80.8177 14.4896 81.2135 14.3906 81.6719 14.3906C81.776 14.3906 81.8958 14.4036 82.0312 14.4297C82.1667 14.4505 82.2604 14.474 82.3125 14.5ZM94.7344 21.7734V23H89.0469V21.7734H94.7344ZM89.3438 11.625V23H87.8359V11.625H89.3438ZM95.8594 18.8672V18.6875C95.8594 18.0781 95.9479 17.513 96.125 16.9922C96.3021 16.4661 96.5573 16.0104 96.8906 15.625C97.224 15.2344 97.6276 14.9323 98.1016 14.7188C98.5755 14.5 99.1068 14.3906 99.6953 14.3906C100.289 14.3906 100.823 14.5 101.297 14.7188C101.776 14.9323 102.182 15.2344 102.516 15.625C102.854 16.0104 103.112 16.4661 103.289 16.9922C103.466 17.513 103.555 18.0781 103.555 18.6875V18.8672C103.555 19.4766 103.466 20.0417 103.289 20.5625C103.112 21.0833 102.854 21.5391 102.516 21.9297C102.182 22.3151 101.779 22.6172 101.305 22.8359C100.836 23.0495 100.305 23.1562 99.7109 23.1562C99.1172 23.1562 98.5833 23.0495 98.1094 22.8359C97.6354 22.6172 97.2292 22.3151 96.8906 21.9297C96.5573 21.5391 96.3021 21.0833 96.125 20.5625C95.9479 20.0417 95.8594 19.4766 95.8594 18.8672ZM97.3047 18.6875V18.8672C97.3047 19.2891 97.3542 19.6875 97.4531 20.0625C97.5521 20.4323 97.7005 20.7604 97.8984 21.0469C98.1016 21.3333 98.3542 21.5599 98.6562 21.7266C98.9583 21.888 99.3099 21.9688 99.7109 21.9688C100.107 21.9688 100.453 21.888 100.75 21.7266C101.052 21.5599 101.302 21.3333 101.5 21.0469C101.698 20.7604 101.846 20.4323 101.945 20.0625C102.049 19.6875 102.102 19.2891 102.102 18.8672V18.6875C102.102 18.2708 102.049 17.8776 101.945 17.5078C101.846 17.1328 101.695 16.8021 101.492 16.5156C101.294 16.224 101.044 15.9948 100.742 15.8281C100.445 15.6615 100.096 15.5781 99.6953 15.5781C99.2995 15.5781 98.9505 15.6615 98.6484 15.8281C98.3516 15.9948 98.1016 16.224 97.8984 16.5156C97.7005 16.8021 97.5521 17.1328 97.4531 17.5078C97.3542 17.8776 97.3047 18.2708 97.3047 18.6875ZM106.812 15.875V23H105.367V14.5469H106.773L106.812 15.875ZM109.453 14.5L109.445 15.8438C109.326 15.8177 109.211 15.8021 109.102 15.7969C108.997 15.7865 108.878 15.7812 108.742 15.7812C108.409 15.7812 108.115 15.8333 107.859 15.9375C107.604 16.0417 107.388 16.1875 107.211 16.375C107.034 16.5625 106.893 16.7865 106.789 17.0469C106.69 17.3021 106.625 17.5833 106.594 17.8906L106.188 18.125C106.188 17.6146 106.237 17.1354 106.336 16.6875C106.44 16.2396 106.599 15.8438 106.812 15.5C107.026 15.151 107.297 14.8802 107.625 14.6875C107.958 14.4896 108.354 14.3906 108.812 14.3906C108.917 14.3906 109.036 14.4036 109.172 14.4297C109.307 14.4505 109.401 14.474 109.453 14.5ZM114.141 23.1562C113.552 23.1562 113.018 23.0573 112.539 22.8594C112.065 22.6562 111.656 22.3724 111.312 22.0078C110.974 21.6432 110.714 21.2109 110.531 20.7109C110.349 20.2109 110.258 19.6641 110.258 19.0703V18.7422C110.258 18.0547 110.359 17.4427 110.562 16.9062C110.766 16.3646 111.042 15.9062 111.391 15.5312C111.74 15.1562 112.135 14.8724 112.578 14.6797C113.021 14.487 113.479 14.3906 113.953 14.3906C114.557 14.3906 115.078 14.4948 115.516 14.7031C115.958 14.9115 116.32 15.2031 116.602 15.5781C116.883 15.9479 117.091 16.3854 117.227 16.8906C117.362 17.3906 117.43 17.9375 117.43 18.5312V19.1797H111.117V18H115.984V17.8906C115.964 17.5156 115.885 17.151 115.75 16.7969C115.62 16.4427 115.411 16.151 115.125 15.9219C114.839 15.6927 114.448 15.5781 113.953 15.5781C113.625 15.5781 113.323 15.6484 113.047 15.7891C112.771 15.9245 112.534 16.1276 112.336 16.3984C112.138 16.6693 111.984 17 111.875 17.3906C111.766 17.7812 111.711 18.2318 111.711 18.7422V19.0703C111.711 19.4714 111.766 19.849 111.875 20.2031C111.99 20.5521 112.154 20.8594 112.367 21.125C112.586 21.3906 112.849 21.599 113.156 21.75C113.469 21.901 113.823 21.9766 114.219 21.9766C114.729 21.9766 115.161 21.8724 115.516 21.6641C115.87 21.4557 116.18 21.1771 116.445 20.8281L117.32 21.5234C117.138 21.7995 116.906 22.0625 116.625 22.3125C116.344 22.5625 115.997 22.7656 115.586 22.9219C115.18 23.0781 114.698 23.1562 114.141 23.1562ZM120.555 16.2266V23H119.102V14.5469H120.477L120.555 16.2266ZM120.258 18.4531L119.586 18.4297C119.591 17.8516 119.667 17.3177 119.812 16.8281C119.958 16.3333 120.174 15.9036 120.461 15.5391C120.747 15.1745 121.104 14.8932 121.531 14.6953C121.958 14.4922 122.453 14.3906 123.016 14.3906C123.411 14.3906 123.776 14.4479 124.109 14.5625C124.443 14.6719 124.732 14.8464 124.977 15.0859C125.221 15.3255 125.411 15.6328 125.547 16.0078C125.682 16.3828 125.75 16.8359 125.75 17.3672V23H124.305V17.4375C124.305 16.9948 124.229 16.6406 124.078 16.375C123.932 16.1094 123.724 15.9167 123.453 15.7969C123.182 15.6719 122.865 15.6094 122.5 15.6094C122.073 15.6094 121.716 15.6849 121.43 15.8359C121.143 15.987 120.914 16.1953 120.742 16.4609C120.57 16.7266 120.445 17.0312 120.367 17.375C120.294 17.7135 120.258 18.0729 120.258 18.4531ZM125.734 17.6562L124.766 17.9531C124.771 17.4896 124.846 17.0443 124.992 16.6172C125.143 16.1901 125.359 15.8099 125.641 15.4766C125.927 15.1432 126.279 14.8802 126.695 14.6875C127.112 14.4896 127.589 14.3906 128.125 14.3906C128.578 14.3906 128.979 14.4505 129.328 14.5703C129.682 14.6901 129.979 14.875 130.219 15.125C130.464 15.3698 130.648 15.6849 130.773 16.0703C130.898 16.4557 130.961 16.9141 130.961 17.4453V23H129.508V17.4297C129.508 16.9557 129.432 16.5885 129.281 16.3281C129.135 16.0625 128.927 15.8776 128.656 15.7734C128.391 15.6641 128.073 15.6094 127.703 15.6094C127.385 15.6094 127.104 15.6641 126.859 15.7734C126.615 15.8828 126.409 16.0339 126.242 16.2266C126.076 16.4141 125.948 16.6302 125.859 16.875C125.776 17.1198 125.734 17.3802 125.734 17.6562ZM138.688 14.5469V23H137.234V14.5469H138.688ZM137.125 12.3047C137.125 12.0703 137.195 11.8724 137.336 11.7109C137.482 11.5495 137.695 11.4688 137.977 11.4688C138.253 11.4688 138.464 11.5495 138.609 11.7109C138.76 11.8724 138.836 12.0703 138.836 12.3047C138.836 12.5286 138.76 12.7214 138.609 12.8828C138.464 13.0391 138.253 13.1172 137.977 13.1172C137.695 13.1172 137.482 13.0391 137.336 12.8828C137.195 12.7214 137.125 12.5286 137.125 12.3047ZM142.453 16.1719V26.25H141V14.5469H142.328L142.453 16.1719ZM148.148 18.7031V18.8672C148.148 19.4818 148.076 20.0521 147.93 20.5781C147.784 21.099 147.57 21.5521 147.289 21.9375C147.013 22.3229 146.672 22.6224 146.266 22.8359C145.859 23.0495 145.393 23.1562 144.867 23.1562C144.331 23.1562 143.857 23.0677 143.445 22.8906C143.034 22.7135 142.685 22.4557 142.398 22.1172C142.112 21.7786 141.883 21.3724 141.711 20.8984C141.544 20.4245 141.43 19.8906 141.367 19.2969V18.4219C141.43 17.7969 141.547 17.237 141.719 16.7422C141.891 16.2474 142.117 15.8255 142.398 15.4766C142.685 15.1224 143.031 14.8542 143.438 14.6719C143.844 14.4844 144.312 14.3906 144.844 14.3906C145.375 14.3906 145.846 14.4948 146.258 14.7031C146.669 14.9062 147.016 15.1979 147.297 15.5781C147.578 15.9583 147.789 16.4141 147.93 16.9453C148.076 17.4714 148.148 18.0573 148.148 18.7031ZM146.695 18.8672V18.7031C146.695 18.2812 146.651 17.8854 146.562 17.5156C146.474 17.1406 146.336 16.8125 146.148 16.5312C145.966 16.2448 145.732 16.0208 145.445 15.8594C145.159 15.6927 144.818 15.6094 144.422 15.6094C144.057 15.6094 143.74 15.6719 143.469 15.7969C143.203 15.9219 142.977 16.0911 142.789 16.3047C142.602 16.513 142.448 16.7526 142.328 17.0234C142.214 17.2891 142.128 17.5651 142.07 17.8516V19.875C142.174 20.2396 142.32 20.5833 142.508 20.9062C142.695 21.224 142.945 21.4818 143.258 21.6797C143.57 21.8724 143.964 21.9688 144.438 21.9688C144.828 21.9688 145.164 21.888 145.445 21.7266C145.732 21.5599 145.966 21.3333 146.148 21.0469C146.336 20.7604 146.474 20.4323 146.562 20.0625C146.651 19.6875 146.695 19.2891 146.695 18.8672ZM154.914 20.7578C154.914 20.5495 154.867 20.3568 154.773 20.1797C154.685 19.9974 154.5 19.8333 154.219 19.6875C153.943 19.5365 153.526 19.4062 152.969 19.2969C152.5 19.1979 152.076 19.0807 151.695 18.9453C151.32 18.8099 151 18.6458 150.734 18.4531C150.474 18.2604 150.273 18.0339 150.133 17.7734C149.992 17.513 149.922 17.2083 149.922 16.8594C149.922 16.526 149.995 16.2109 150.141 15.9141C150.292 15.6172 150.503 15.3542 150.773 15.125C151.049 14.8958 151.38 14.7161 151.766 14.5859C152.151 14.4557 152.581 14.3906 153.055 14.3906C153.732 14.3906 154.31 14.5104 154.789 14.75C155.268 14.9896 155.635 15.3099 155.891 15.7109C156.146 16.1068 156.273 16.5469 156.273 17.0312H154.828C154.828 16.7969 154.758 16.5703 154.617 16.3516C154.482 16.1276 154.281 15.9427 154.016 15.7969C153.755 15.651 153.435 15.5781 153.055 15.5781C152.654 15.5781 152.328 15.6406 152.078 15.7656C151.833 15.8854 151.654 16.0391 151.539 16.2266C151.43 16.4141 151.375 16.612 151.375 16.8203C151.375 16.9766 151.401 17.1172 151.453 17.2422C151.51 17.362 151.609 17.474 151.75 17.5781C151.891 17.6771 152.089 17.7708 152.344 17.8594C152.599 17.9479 152.924 18.0365 153.32 18.125C154.013 18.2812 154.583 18.4688 155.031 18.6875C155.479 18.9062 155.812 19.1745 156.031 19.4922C156.25 19.8099 156.359 20.1953 156.359 20.6484C156.359 21.0182 156.281 21.3568 156.125 21.6641C155.974 21.9714 155.753 22.237 155.461 22.4609C155.174 22.6797 154.831 22.8516 154.43 22.9766C154.034 23.0964 153.589 23.1562 153.094 23.1562C152.349 23.1562 151.719 23.0234 151.203 22.7578C150.688 22.4922 150.297 22.1484 150.031 21.7266C149.766 21.3047 149.633 20.8594 149.633 20.3906H151.086C151.107 20.7865 151.221 21.1016 151.43 21.3359C151.638 21.5651 151.893 21.7292 152.195 21.8281C152.497 21.9219 152.797 21.9688 153.094 21.9688C153.49 21.9688 153.82 21.9167 154.086 21.8125C154.357 21.7083 154.562 21.5651 154.703 21.3828C154.844 21.2005 154.914 20.9922 154.914 20.7578ZM163.43 21.0469V14.5469H164.883V23H163.5L163.43 21.0469ZM163.703 19.2656L164.305 19.25C164.305 19.8125 164.245 20.3333 164.125 20.8125C164.01 21.2865 163.823 21.6979 163.562 22.0469C163.302 22.3958 162.961 22.6693 162.539 22.8672C162.117 23.0599 161.604 23.1562 161 23.1562C160.589 23.1562 160.211 23.0964 159.867 22.9766C159.529 22.8568 159.237 22.6719 158.992 22.4219C158.747 22.1719 158.557 21.8464 158.422 21.4453C158.292 21.0443 158.227 20.5625 158.227 20V14.5469H159.672V20.0156C159.672 20.3958 159.714 20.7109 159.797 20.9609C159.885 21.2057 160.003 21.401 160.148 21.5469C160.299 21.6875 160.466 21.7865 160.648 21.8438C160.836 21.901 161.029 21.9297 161.227 21.9297C161.841 21.9297 162.328 21.8125 162.688 21.5781C163.047 21.3385 163.305 21.0182 163.461 20.6172C163.622 20.2109 163.703 19.7604 163.703 19.2656ZM168.523 16.2266V23H167.07V14.5469H168.445L168.523 16.2266ZM168.227 18.4531L167.555 18.4297C167.56 17.8516 167.635 17.3177 167.781 16.8281C167.927 16.3333 168.143 15.9036 168.43 15.5391C168.716 15.1745 169.073 14.8932 169.5 14.6953C169.927 14.4922 170.422 14.3906 170.984 14.3906C171.38 14.3906 171.745 14.4479 172.078 14.5625C172.411 14.6719 172.701 14.8464 172.945 15.0859C173.19 15.3255 173.38 15.6328 173.516 16.0078C173.651 16.3828 173.719 16.8359 173.719 17.3672V23H172.273V17.4375C172.273 16.9948 172.198 16.6406 172.047 16.375C171.901 16.1094 171.693 15.9167 171.422 15.7969C171.151 15.6719 170.833 15.6094 170.469 15.6094C170.042 15.6094 169.685 15.6849 169.398 15.8359C169.112 15.987 168.883 16.1953 168.711 16.4609C168.539 16.7266 168.414 17.0312 168.336 17.375C168.263 17.7135 168.227 18.0729 168.227 18.4531ZM173.703 17.6562L172.734 17.9531C172.74 17.4896 172.815 17.0443 172.961 16.6172C173.112 16.1901 173.328 15.8099 173.609 15.4766C173.896 15.1432 174.247 14.8802 174.664 14.6875C175.081 14.4896 175.557 14.3906 176.094 14.3906C176.547 14.3906 176.948 14.4505 177.297 14.5703C177.651 14.6901 177.948 14.875 178.188 15.125C178.432 15.3698 178.617 15.6849 178.742 16.0703C178.867 16.4557 178.93 16.9141 178.93 17.4453V23H177.477V17.4297C177.477 16.9557 177.401 16.5885 177.25 16.3281C177.104 16.0625 176.896 15.8776 176.625 15.7734C176.359 15.6641 176.042 15.6094 175.672 15.6094C175.354 15.6094 175.073 15.6641 174.828 15.7734C174.583 15.8828 174.378 16.0339 174.211 16.2266C174.044 16.4141 173.917 16.6302 173.828 16.875C173.745 17.1198 173.703 17.3802 173.703 17.6562Z" fill="black"/>
<circle cx="16" cy="16" r="16" fill="#0051AF" fill-opacity="0.15"/>
<g clip-path="url(#clip0_56_29)">
<path d="M15.9145 15.7804C16.7086 15.7804 17.3963 15.4956 17.9581 14.9337C18.52 14.3718 18.8048 13.6843 18.8048 12.8901C18.8048 12.0962 18.52 11.4086 17.958 10.8466C17.3961 10.2848 16.7085 10 15.9145 10C15.1203 10 14.4328 10.2848 13.8709 10.8467C13.3091 11.4085 13.0242 12.0961 13.0242 12.8901C13.0242 13.6843 13.3091 14.3719 13.871 14.9338C14.433 15.4955 15.1205 15.7804 15.9145 15.7804V15.7804Z" fill="#0051AF"/>
<path d="M20.9718 19.2274C20.9556 18.9935 20.9228 18.7385 20.8745 18.4691C20.8258 18.1978 20.7631 17.9412 20.688 17.7068C20.6105 17.4644 20.505 17.2251 20.3747 16.9958C20.2393 16.7577 20.0804 16.5505 19.9021 16.3799C19.7156 16.2015 19.4872 16.058 19.2232 15.9534C18.9601 15.8493 18.6685 15.7965 18.3566 15.7965C18.2341 15.7965 18.1156 15.8468 17.8868 15.9958C17.746 16.0876 17.5813 16.1938 17.3975 16.3112C17.2403 16.4114 17.0273 16.5052 16.7643 16.5902C16.5077 16.6732 16.2471 16.7154 15.9899 16.7154C15.7328 16.7154 15.4723 16.6732 15.2154 16.5902C14.9526 16.5053 14.7397 16.4115 14.5827 16.3113C14.4006 16.195 14.2358 16.0888 14.0929 15.9957C13.8643 15.8467 13.7458 15.7964 13.6233 15.7964C13.3113 15.7964 13.0198 15.8493 12.7567 15.9535C12.4929 16.0579 12.2645 16.2014 12.0778 16.38C11.8995 16.5507 11.7405 16.7578 11.6054 16.9958C11.4751 17.2251 11.3696 17.4643 11.292 17.7069C11.217 17.9413 11.1543 18.1978 11.1056 18.4691C11.0573 18.7381 11.0246 18.9933 11.0084 19.2276C10.9924 19.4573 10.9844 19.6956 10.9844 19.9363C10.9844 20.5627 11.1835 21.0698 11.5762 21.4438C11.964 21.8128 12.4771 22 13.1012 22H18.8792C19.5033 22 20.0162 21.8129 20.4041 21.4438C20.7969 21.07 20.996 20.5628 20.996 19.9362C20.9959 19.6944 20.9878 19.4559 20.9718 19.2274V19.2274Z" fill="#0051AF"/>
</g>
<defs>
<clipPath id="clip0_56_29">
<rect width="12" height="12" fill="white" transform="translate(10 10)"/>
</clipPath>
</defs>
</svg>
